<?xml version="1.0" standalone="no"?><!DOCTYPE svg PUBLIC "-//W3C//DTD SVG 1.1//EN" "http://www.w3.org/Graphics/SVG/1.1/DTD/svg11.dtd"><svg t="1740220779230" class="icon" viewBox="0 0 1024 1024" version="1.1" xmlns="http://www.w3.org/2000/svg" p-id="4748" xmlns:xlink="http://www.w3.org/1999/xlink" width="200" height="200"><path d="M1024 511.996c0-134.072-112.7-242.884-252.6-242.884-12.63 0-26.232 0.972-38.86 2.916-107.84 15.544-180.706 93.266-220.54 152.53-40.804-59.264-112.7-136.986-220.54-152.53-12.628-1.944-26.23-2.916-38.86-2.916C113.67 269.112 0 377.924 0 511.996s112.7 242.886 251.628 242.886c12.63 0 26.232-0.972 38.86-2.916 107.842-15.544 180.708-93.268 220.54-152.53 40.806 59.262 112.7 136.986 220.54 152.53 12.63 1.944 26.23 2.916 38.86 2.916C911.302 755.852 1024 647.04 1024 511.996z m-745.168 155.446c-8.744 0.972-17.488 1.944-26.232 1.944-91.324 0-166.134-70.922-166.134-157.39 0-86.466 74.81-157.388 166.134-157.388 8.744 0 17.488 0.972 26.232 1.942 102.01 14.574 164.188 114.642 185.562 155.446-21.374 40.806-83.552 140.874-185.562 155.446z m280.774-155.446c21.374-39.832 83.552-140.872 185.562-155.446 8.744-0.97 17.488-1.942 26.232-1.942 91.324 0 166.134 70.922 166.134 157.388 0 86.468-74.81 157.39-166.134 157.39-8.744 0-17.488-0.972-26.232-1.944-102.01-14.572-164.188-114.64-185.562-155.446z m-376.958 25.26h151.56V488.68h-151.56v48.576z m606.24 0h50.52V488.68h-50.52v-51.492H739.34v51.492h-50.52v48.576h50.52v51.492h49.548v-51.492z" fill="#00979C" p-id="4749"></path></svg>