<?xml version="1.0" standalone="no"?><!DOCTYPE svg PUBLIC "-//W3C//DTD SVG 1.1//EN" "http://www.w3.org/Graphics/SVG/1.1/DTD/svg11.dtd"><svg t="1740381478239" class="icon" viewBox="0 0 1024 1024" version="1.1" xmlns="http://www.w3.org/2000/svg" p-id="3770" xmlns:xlink="http://www.w3.org/1999/xlink" width="200" height="200"><path d="M64 352H0V0h1024v352h-64V64H64v288zM1024 1024H0v-224h64v160h896v-160h64v224z" fill="#54C3F1" p-id="3771"></path><path d="M32 128h960v64H32zM480 736h-64v-210.88l-32-32-32 32V736H288v-237.12l96-96 96 96V736z" fill="#54C3F1" p-id="3772"></path><path d="M320 576h128v64h-128zM992 736h-64v-210.88l-32-32-32 32V736h-64v-237.12l96-96 96 96V736z" fill="#54C3F1" p-id="3773"></path><path d="M832 576h128v64h-128zM173.12 736H82.88L32 685.12V608h64v50.88l13.12 13.12h37.76l13.12-13.12V416h64v269.12L173.12 736zM640 749.12l-96-96V416h64v210.88l32 32 32-32V416h64v237.12l-96 96z" fill="#54C3F1" p-id="3774"></path></svg>