<?xml version="1.0" standalone="no"?><!DOCTYPE svg PUBLIC "-//W3C//DTD SVG 1.1//EN" "http://www.w3.org/Graphics/SVG/1.1/DTD/svg11.dtd"><svg t="1746777502147" class="icon" viewBox="0 0 1024 1024" version="1.1" xmlns="http://www.w3.org/2000/svg" p-id="2646" xmlns:xlink="http://www.w3.org/1999/xlink" width="200" height="200"><path d="M512 1000.727273c269.917091 0 488.727273-218.810182 488.727273-488.727273S781.917091 23.272727 512 23.272727 23.272727 242.082909 23.272727 512 242.082909 1000.727273 512 1000.727273z m0-46.545455a442.181818 442.181818 0 1 1 0-884.363636 442.181818 442.181818 0 0 1 0 884.363636z" fill="#515151" p-id="2647"></path><path d="M702.464 352.069818c24.994909-1.629091 24.994909 32.814545 2.001455 34.210909-22.993455 1.396364-133.12 6.237091-220.904728 8.285091-2.001455 21.783273-3.444364 44.032-3.956363 66.839273a302.08 302.08 0 0 1 73.448727-8.285091c8.378182 0 16.756364 0 25.134545 1.024 2.001455-9.309091 0.744727-4.189091 6.981819-28.997818 6.190545-24.808727 39.796364-16.058182 33.512727 7.773091-6.330182 23.831273-4.933818 18.618182-6.935273 27.927272 18.245818 5.213091 35.002182 13.498182 50.781091 24.901819 35.002182 25.367273 52.782545 60.090182 52.782545 103.610181 0 46.08-14.801455 81.873455-44.404363 107.752728-27.601455 23.831273-89.227636 42.356364-122.740364 47.150545-33.512727 4.794182-31.650909-29.509818-12.334545-32.116363 19.316364-2.606545 81.826909-19.176727 105.984-38.865455 25.134545-21.224727 37.981091-49.198545 37.981091-83.921455 0-33.652364-14.289455-60.090182-42.914909-78.754909a124.229818 124.229818 0 0 0-34.490182-16.058181 567.854545 567.854545 0 0 1-54.225455 123.345454c-43.426909 69.352727-95.697455 104.634182-157.323636 104.634182-24.157091 0-42.914909-8.285091-56.226909-23.831273-13.777455-15.546182-20.200727-36.305455-20.200728-63.208727 0-48.174545 22.202182-90.158545 66.56-125.905455a226.722909 226.722909 0 0 1 62.650182-36.770909c0.465455-26.437818 1.954909-52.317091 4.421818-77.730909-39.470545 0-99.467636 0.512-125.719272 0.512-26.298182 0-26.298182-34.676364-0.512-34.676363 25.786182 0 89.227636-0.558545 129.675636-0.558546 2.466909-21.736727 5.12-39.424 9.867636-64.698182 4.701091-25.367273 40.448-20.200727 35.002182 8.238546-5.399273 28.485818-6.423273 36.770909-8.843636 55.947636 87.738182-1.536 189.998545-6.144 214.946909-7.773091z m-134.097455 135.773091c-4.933818-0.558545-10.379636-0.558545-15.313454-0.558545a262.516364 262.516364 0 0 0-74.472727 9.867636v7.261091c0 50.734545 2.978909 95.837091 9.914181 135.214545a380.276364 380.276364 0 0 0 29.556364-39.889454c19.735273-32.116364 36.491636-69.445818 50.269091-111.895273z m-125.207272 23.272727a165.469091 165.469091 0 0 0-38.027637 24.389819c-37.469091 29.509818-55.714909 62.650182-55.714909 99.979636 0 35.234909 13.824 52.829091 41.425455 52.829091 23.691636 0 45.847273-7.261091 66.56-21.224727-9.355636-45.614545-14.289455-97.931636-14.289455-155.927273z" fill="#515151" p-id="2648"></path></svg>